<svg id="visual" viewBox="0 0 900 450" width="900" height="450" xmlns="http://www.w3.org/2000/svg" xmlns:xlink="http://www.w3.org/1999/xlink" version="1.1"><rect width="900" height="450" fill="#0a1019"></rect><g><g transform="translate(582 42)"><path d="M64.7 -40.2C72.7 -23.4 60.5 2.2 46.3 24.5C32.2 46.8 16.1 65.8 -7.4 70.1C-30.9 74.4 -61.8 64 -74.7 42.4C-87.6 20.8 -82.5 -11.9 -67 -32.9C-51.6 -54 -25.8 -63.3 1.3 -64C28.3 -64.7 56.6 -56.9 64.7 -40.2Z" fill="none" stroke="#49576d" stroke-width="20"></path></g><g transform="translate(174 309)"><path d="M47.4 -27.8C58.6 -7.9 63 15.5 54 34.3C44.9 53.1 22.5 67.3 3.7 65.2C-15 63 -30.1 44.5 -43 23.5C-56 2.4 -66.9 -21.3 -59.4 -39C-51.9 -56.8 -25.9 -68.7 -3.9 -66.5C18.1 -64.2 36.2 -47.8 47.4 -27.8Z" fill="none" stroke="#49576d" stroke-width="20"></path></g><g transform="translate(820 433)"><path d="M48.9 -28C59.9 -9.1 63 14.5 53.6 32.4C44.1 50.4 22 62.5 2.8 60.9C-16.5 59.3 -32.9 43.9 -41.7 26.4C-50.5 8.9 -51.5 -10.8 -43.3 -28C-35.1 -45.3 -17.5 -60.2 0.7 -60.6C18.9 -61 37.9 -46.9 48.9 -28Z" fill="none" stroke="#49576d" stroke-width="20"></path></g><g transform="translate(841 9)"><path d="M41.1 -22.8C48.7 -10.6 47.1 7.8 38.7 22.1C30.3 36.4 15.2 46.5 -0.6 46.9C-16.4 47.2 -32.9 37.8 -37.7 25.6C-42.6 13.3 -36 -1.8 -27.8 -14.4C-19.5 -27 -9.8 -37.1 3.5 -39.1C16.8 -41.1 33.5 -35.1 41.1 -22.8Z" fill="none" stroke="#49576d" stroke-width="20"></path></g><g transform="translate(414 245)"><path d="M31.7 -19.6C37.3 -8.7 35.3 5.3 28.7 20.5C22.2 35.8 11.1 52.4 -3.4 54.3C-17.8 56.3 -35.7 43.6 -44.7 26.9C-53.6 10.2 -53.8 -10.4 -44.9 -23.2C-35.9 -36 -18 -40.9 -2.4 -39.5C13.1 -38.1 26.2 -30.4 31.7 -19.6Z" fill="none" stroke="#49576d" stroke-width="20"></path></g><g transform="translate(635 256)"><path d="M47.1 -27.8C55.5 -12.7 53 8.2 43.3 23.4C33.6 38.6 16.8 48.1 1.7 47.1C-13.3 46.1 -26.7 34.6 -36.2 19.5C-45.7 4.5 -51.3 -14.2 -44.6 -28.4C-37.9 -42.5 -19 -52.2 0.2 -52.3C19.4 -52.4 38.7 -43 47.1 -27.8Z" fill="none" stroke="#49576d" stroke-width="20"></path></g><g transform="translate(249 103)"><path d="M32.6 -18.1C40 -6.2 41.9 9.6 35.6 20.3C29.3 30.9 14.6 36.5 -0.3 36.7C-15.2 36.9 -30.4 31.6 -36 21.3C-41.7 11 -37.8 -4.3 -30.2 -16.4C-22.6 -28.5 -11.3 -37.4 0.7 -37.8C12.7 -38.2 25.3 -30.1 32.6 -18.1Z" fill="none" stroke="#49576d" stroke-width="20"></path></g><g transform="translate(14 41)"><path d="M62 -34.2C70.8 -20.6 61.7 4.9 48.4 24.7C35 44.6 17.5 58.9 -4 61.2C-25.5 63.5 -51 53.8 -60.4 36.2C-69.9 18.5 -63.3 -7.1 -50.6 -23C-37.8 -38.9 -18.9 -45.1 3.9 -47.3C26.6 -49.5 53.3 -47.8 62 -34.2Z" stroke="#49576d" fill="none" stroke-width="20"></path></g><g transform="translate(513 448)"><path d="M55.9 -32.7C66.2 -14.5 63.9 10.6 52.5 32.4C41.1 54.2 20.6 72.7 1 72.2C-18.6 71.6 -37.2 51.9 -48.9 29.9C-60.6 8 -65.4 -16.3 -56.1 -34C-46.8 -51.7 -23.4 -62.9 -0.3 -62.7C22.8 -62.5 45.6 -51 55.9 -32.7Z" stroke="#49576d" fill="none" stroke-width="20"></path></g></g></svg>
